<svg width="100%" viewBox="0 0 680 420" role="img" xmlns="http://www.w3.org/2000/svg">
<title>Yueming Li - Full-Stack Engineer and AI Developer GitHub Profile</title>
<desc>Academic warm-style profile card for Yueming Li</desc>

<rect width="680" height="420" fill="#faf8f3" rx="12"/>
<rect x="0" y="0" width="680" height="420" fill="none" stroke="#d4c9a8" stroke-width="1.5" rx="12"/>

<rect x="40" y="36" width="80" height="2" fill="#c9a84c"/>
<rect x="128" y="36" width="512" height="0.5" fill="#d4c9a8"/>

<text x="40" y="80" font-family="Georgia, serif" font-size="32" font-weight="700" fill="#1a1208" letter-spacing="-0.5">Yueming Li</text>
<text x="40" y="108" font-family="Georgia, serif" font-size="14" fill="#8b7355" font-style="italic">Full-Stack Engineer · AI Application Developer</text>

<rect x="40" y="124" width="148" height="22" rx="4" fill="#eaf4ea" stroke="#b5d5b5" stroke-width="1"/>
<text x="52" y="139" font-family="-apple-system, sans-serif" font-size="11" fill="#3a7a3a" font-weight="500">&#x25CF; Open to Work · Full-time</text>

<line x1="40" y1="162" x2="640" y2="162" stroke="#d4c9a8" stroke-width="0.75"/>

<text x="40" y="184" font-family="Georgia, serif" font-size="13" fill="#5a4a35">M.S. Software Engineering @ Northeastern (GPA 3.83). Built production</text>
<text x="40" y="202" font-family="Georgia, serif" font-size="13" fill="#5a4a35">systems at Intuitive Motion — React/Node.js + ROS2 platform, real-time</text>
<text x="40" y="220" font-family="Georgia, serif" font-size="13" fill="#5a4a35">WebSocket, RAG pipelines, and multi-agent AI. Actively interviewing.</text>

<line x1="40" y1="238" x2="640" y2="238" stroke="#d4c9a8" stroke-width="0.75"/>

<text x="40" y="260" font-family="-apple-system, sans-serif" font-size="10" fill="#a89880" letter-spacing="1.5">SKILLS</text>

<rect x="40" y="268" width="58" height="20" rx="3" fill="#f0e8d6" stroke="#d4c9a8" stroke-width="0.75"/>
<text x="69" y="282" font-family="monospace" font-size="11" fill="#8b6914" text-anchor="middle">React</text>

<rect x="106" y="268" width="62" height="20" rx="3" fill="#f0e8d6" stroke="#d4c9a8" stroke-width="0.75"/>
<text x="137" y="282" font-family="monospace" font-size="11" fill="#8b6914" text-anchor="middle">Next.js</text>

<rect x="176" y="268" width="78" height="20" rx="3" fill="#f0e8d6" stroke="#d4c9a8" stroke-width="0.75"/>
<text x="215" y="282" font-family="monospace" font-size="11" fill="#8b6914" text-anchor="middle">TypeScript</text>

<rect x="262" y="268" width="62" height="20" rx="3" fill="#f0e8d6" stroke="#d4c9a8" stroke-width="0.75"/>
<text x="293" y="282" font-family="monospace" font-size="11" fill="#8b6914" text-anchor="middle">Python</text>

<rect x="332" y="268" width="68" height="20" rx="3" fill="#f0e8d6" stroke="#d4c9a8" stroke-width="0.75"/>
<text x="366" y="282" font-family="monospace" font-size="11" fill="#8b6914" text-anchor="middle">Node.js</text>

<rect x="408" y="268" width="54" height="20" rx="3" fill="#f0e8d6" stroke="#d4c9a8" stroke-width="0.75"/>
<text x="435" y="282" font-family="monospace" font-size="11" fill="#8b6914" text-anchor="middle">Docker</text>

<rect x="470" y="268" width="38" height="20" rx="3" fill="#f0e8d6" stroke="#d4c9a8" stroke-width="0.75"/>
<text x="489" y="282" font-family="monospace" font-size="11" fill="#8b6914" text-anchor="middle">AWS</text>

<rect x="516" y="268" width="50" height="20" rx="3" fill="#f0e8d6" stroke="#d4c9a8" stroke-width="0.75"/>
<text x="541" y="282" font-family="monospace" font-size="11" fill="#8b6914" text-anchor="middle">Flask</text>

<rect x="40" y="296" width="82" height="20" rx="3" fill="#f5ede0" stroke="#d4b896" stroke-width="0.75"/>
<text x="81" y="310" font-family="monospace" font-size="11" fill="#7a4f1a" text-anchor="middle">LangChain</text>

<rect x="130" y="296" width="80" height="20" rx="3" fill="#f5ede0" stroke="#d4b896" stroke-width="0.75"/>
<text x="170" y="310" font-family="monospace" font-size="11" fill="#7a4f1a" text-anchor="middle">HuggingFace</text>

<rect x="218" y="296" width="64" height="20" rx="3" fill="#f5ede0" stroke="#d4b896" stroke-width="0.75"/>
<text x="250" y="310" font-family="monospace" font-size="11" fill="#7a4f1a" text-anchor="middle">PyTorch</text>

<rect x="290" y="296" width="38" height="20" rx="3" fill="#f5ede0" stroke="#d4b896" stroke-width="0.75"/>
<text x="309" y="310" font-family="monospace" font-size="11" fill="#7a4f1a" text-anchor="middle">RAG</text>

<rect x="336" y="296" width="88" height="20" rx="3" fill="#f5ede0" stroke="#d4b896" stroke-width="0.75"/>
<text x="380" y="310" font-family="monospace" font-size="11" fill="#7a4f1a" text-anchor="middle">SageMaker</text>

<rect x="432" y="296" width="96" height="20" rx="3" fill="#f5ede0" stroke="#d4b896" stroke-width="0.75"/>
<text x="480" y="310" font-family="monospace" font-size="11" fill="#7a4f1a" text-anchor="middle">Multi-Agent(n8n)</text>

<line x1="40" y1="332" x2="640" y2="332" stroke="#d4c9a8" stroke-width="0.75"/>

<text x="40" y="356" font-family="-apple-system, sans-serif" font-size="10" fill="#a89880" letter-spacing="1.5">CONTACT</text>

<text x="40" y="378" font-family="Georgia, serif" font-size="13" fill="#8b6914">&#x2709; lyueming1006@gmail.com</text>
<text x="272" y="378" font-family="Georgia, serif" font-size="13" fill="#8b6914">&#x25A1; linkedin.com/in/yuemingli</text>
<text x="480" y="378" font-family="Georgia, serif" font-size="13" fill="#8b6914">&#x25B7; coming soon</text>

<rect x="560" y="400" width="80" height="2" fill="#c9a84c"/>
<rect x="40" y="400" width="512" height="0.5" fill="#d4c9a8"/>

</svg>