<svg width="100%" viewBox="0 0 680 440" role="img" xmlns="http://www.w3.org/2000/svg">
<title>Yueming Li - Full-Stack Engineer and AI Developer GitHub Profile</title>
<desc>Academic warm-style profile card for Yueming Li with expanded skills</desc>

<rect width="680" height="440" fill="#faf8f3" rx="12"/>
<rect x="0" y="0" width="680" height="440" fill="none" stroke="#d4c9a8" stroke-width="1.5" rx="12"/>

<rect x="40" y="36" width="80" height="2" fill="#c9a84c"/>
<rect x="128" y="36" width="512" height="0.5" fill="#d4c9a8"/>

<text x="40" y="80" font-family="Georgia, serif" font-size="32" font-weight="700" fill="#1a1208" letter-spacing="-0.5">Yueming Li</text>
<text x="40" y="108" font-family="Georgia, serif" font-size="14" fill="#8b7355" font-style="italic">Full-Stack Engineer · AI Application Developer</text>

<rect x="40" y="124" width="148" height="22" rx="4" fill="#eaf4ea" stroke="#b5d5b5" stroke-width="1"/>
<text x="52" y="139" font-family="-apple-system, sans-serif" font-size="11" fill="#3a7a3a" font-weight="500">&#x25CF; Open to Work · Full-time</text>

<line x1="40" y1="162" x2="640" y2="162" stroke="#d4c9a8" stroke-width="0.75"/>

<text x="40" y="184" font-family="Georgia, serif" font-size="13" fill="#5a4a35">M.S. Software Engineering @ Northeastern (GPA 3.83). Built production</text>
<text x="40" y="202" font-family="Georgia, serif" font-size="13" fill="#5a4a35">systems at Intuitive Motion — React/Node.js + ROS2 platform, real-time</text>
<text x="40" y="220" font-family="Georgia, serif" font-size="13" fill="#5a4a35">WebSocket, RAG pipelines, and multi-agent AI. Actively interviewing.</text>

<line x1="40" y1="238" x2="640" y2="238" stroke="#d4c9a8" stroke-width="0.75"/>

<text x="40" y="258" font-family="-apple-system, sans-serif" font-size="10" fill="#a89880" letter-spacing="1.5">FRONTEND</text>

<rect x="40" y="266" width="58" height="20" rx="3" fill="#f0e8d6" stroke="#d4c9a8" stroke-width="0.75"/>
<text x="69" y="280" font-family="monospace" font-size="11" fill="#8b6914" text-anchor="middle">React</text>
<rect x="106" y="266" width="78" height="20" rx="3" fill="#f0e8d6" stroke="#d4c9a8" stroke-width="0.75"/>
<text x="145" y="280" font-family="monospace" font-size="11" fill="#8b6914" text-anchor="middle">TypeScript</text>
<rect x="192" y="266" width="56" height="20" rx="3" fill="#f0e8d6" stroke="#d4c9a8" stroke-width="0.75"/>
<text x="220" y="280" font-family="monospace" font-size="11" fill="#8b6914" text-anchor="middle">Redux</text>
<rect x="256" y="266" width="60" height="20" rx="3" fill="#f0e8d6" stroke="#d4c9a8" stroke-width="0.75"/>
<text x="286" y="280" font-family="monospace" font-size="11" fill="#8b6914" text-anchor="middle">Tailwind</text>
<rect x="324" y="266" width="70" height="20" rx="3" fill="#f0e8d6" stroke="#d4c9a8" stroke-width="0.75"/>
<text x="359" y="280" font-family="monospace" font-size="11" fill="#8b6914" text-anchor="middle">WebSocket</text>
<rect x="402" y="266" width="54" height="20" rx="3" fill="#f0e8d6" stroke="#d4c9a8" stroke-width="0.75"/>
<text x="429" y="280" font-family="monospace" font-size="11" fill="#8b6914" text-anchor="middle">Figma</text>

<text x="40" y="304" font-family="-apple-system, sans-serif" font-size="10" fill="#a89880" letter-spacing="1.5">BACKEND &amp; DATA</text>

<rect x="40" y="312" width="62" height="20" rx="3" fill="#f0e8d6" stroke="#d4c9a8" stroke-width="0.75"/>
<text x="71" y="326" font-family="monospace" font-size="11" fill="#8b6914" text-anchor="middle">Node.js</text>
<rect x="110" y="312" width="62" height="20" rx="3" fill="#f0e8d6" stroke="#d4c9a8" stroke-width="0.75"/>
<text x="141" y="326" font-family="monospace" font-size="11" fill="#8b6914" text-anchor="middle">Python</text>
<rect x="180" y="312" width="44" height="20" rx="3" fill="#f0e8d6" stroke="#d4c9a8" stroke-width="0.75"/>
<text x="202" y="326" font-family="monospace" font-size="11" fill="#8b6914" text-anchor="middle">Flask</text>
<rect x="232" y="312" width="78" height="20" rx="3" fill="#f0e8d6" stroke="#d4c9a8" stroke-width="0.75"/>
<text x="271" y="326" font-family="monospace" font-size="11" fill="#8b6914" text-anchor="middle">PostgreSQL</text>
<rect x="318" y="312" width="64" height="20" rx="3" fill="#f0e8d6" stroke="#d4c9a8" stroke-width="0.75"/>
<text x="350" y="326" font-family="monospace" font-size="11" fill="#8b6914" text-anchor="middle">MongoDB</text>
<rect x="390" y="312" width="44" height="20" rx="3" fill="#f0e8d6" stroke="#d4c9a8" stroke-width="0.75"/>
<text x="412" y="326" font-family="monospace" font-size="11" fill="#8b6914" text-anchor="middle">Redis</text>
<rect x="442" y="312" width="44" height="20" rx="3" fill="#f0e8d6" stroke="#d4c9a8" stroke-width="0.75"/>
<text x="464" y="326" font-family="monospace" font-size="11" fill="#8b6914" text-anchor="middle">Kafka</text>

<text x="40" y="350" font-family="-apple-system, sans-serif" font-size="10" fill="#a89880" letter-spacing="1.5">CLOUD &amp; DEVOPS</text>

<rect x="40" y="358" width="38" height="20" rx="3" fill="#f0e8d6" stroke="#d4c9a8" stroke-width="0.75"/>
<text x="59" y="372" font-family="monospace" font-size="11" fill="#8b6914" text-anchor="middle">AWS</text>
<rect x="86" y="358" width="54" height="20" rx="3" fill="#f0e8d6" stroke="#d4c9a8" stroke-width="0.75"/>
<text x="113" y="372" font-family="monospace" font-size="11" fill="#8b6914" text-anchor="middle">Docker</text>
<rect x="148" y="358" width="74" height="20" rx="3" fill="#f0e8d6" stroke="#d4c9a8" stroke-width="0.75"/>
<text x="185" y="372" font-family="monospace" font-size="11" fill="#8b6914" text-anchor="middle">Kubernetes</text>
<rect x="230" y="358" width="56" height="20" rx="3" fill="#f0e8d6" stroke="#d4c9a8" stroke-width="0.75"/>
<text x="258" y="372" font-family="monospace" font-size="11" fill="#8b6914" text-anchor="middle">CI/CD</text>
<rect x="294" y="358" width="44" height="20" rx="3" fill="#f0e8d6" stroke="#d4c9a8" stroke-width="0.75"/>
<text x="316" y="372" font-family="monospace" font-size="11" fill="#8b6914" text-anchor="middle">nginx</text>
<rect x="346" y="358" width="38" height="20" rx="3" fill="#f0e8d6" stroke="#d4c9a8" stroke-width="0.75"/>
<text x="365" y="372" font-family="monospace" font-size="11" fill="#8b6914" text-anchor="middle">Git</text>

<text x="40" y="396" font-family="-apple-system, sans-serif" font-size="10" fill="#a89880" letter-spacing="1.5">AI / ML</text>

<rect x="40" y="404" width="82" height="20" rx="3" fill="#f5ede0" stroke="#d4b896" stroke-width="0.75"/>
<text x="81" y="418" font-family="monospace" font-size="11" fill="#7a4f1a" text-anchor="middle">LangChain</text>
<rect x="130" y="404" width="80" height="20" rx="3" fill="#f5ede0" stroke="#d4b896" stroke-width="0.75"/>
<text x="170" y="418" font-family="monospace" font-size="11" fill="#7a4f1a" text-anchor="middle">HuggingFace</text>
<rect x="218" y="404" width="64" height="20" rx="3" fill="#f5ede0" stroke="#d4b896" stroke-width="0.75"/>
<text x="250" y="418" font-family="monospace" font-size="11" fill="#7a4f1a" text-anchor="middle">PyTorch</text>
<rect x="290" y="404" width="38" height="20" rx="3" fill="#f5ede0" stroke="#d4b896" stroke-width="0.75"/>
<text x="309" y="418" font-family="monospace" font-size="11" fill="#7a4f1a" text-anchor="middle">RAG</text>
<rect x="336" y="404" width="88" height="20" rx="3" fill="#f5ede0" stroke="#d4b896" stroke-width="0.75"/>
<text x="380" y="418" font-family="monospace" font-size="11" fill="#7a4f1a" text-anchor="middle">SageMaker</text>
<rect x="432" y="404" width="42" height="20" rx="3" fill="#f5ede0" stroke="#d4b896" stroke-width="0.75"/>
<text x="453" y="418" font-family="monospace" font-size="11" fill="#7a4f1a" text-anchor="middle">n8n</text>
<rect x="482" y="404" width="84" height="20" rx="3" fill="#f5ede0" stroke="#d4b896" stroke-width="0.75"/>
<text x="524" y="418" font-family="monospace" font-size="11" fill="#7a4f1a" text-anchor="middle">Multi-Agent</text>

<rect x="560" y="432" width="80" height="2" fill="#c9a84c"/>
<rect x="40" y="432" width="512" height="0.5" fill="#d4c9a8"/>

</svg>